<svg xmlns="http://www.w3.org/2000/svg" viewBox="0 0 186 113.5"><path d="M70.8882,106.0345a2.1088,2.1088,0,0,0,.37,1.1946l-.251-1.8686A2.096,2.096,0,0,0,70.8882,106.0345Z" fill="#d7c6ba"/><path d="M70.9917,111.5564h.848l-.1391-1.0354A2.1094,2.1094,0,0,0,70.9917,111.5564Z" fill="#d7c6ba"/><path d="M66.1139,91.6248a2.12,2.12,0,1,0,2.1193,2.12A2.12,2.12,0,0,0,66.1139,91.6248Z" fill="#d7c6ba"/><path d="M66.1139,97.77a2.12,2.12,0,1,0,2.1193,2.12A2.1195,2.1195,0,0,0,66.1139,97.77Z" fill="#d7c6ba"/><path d="M66.1139,103.9137a2.12,2.12,0,1,0,2.1193,2.12A2.1194,2.1194,0,0,0,66.1139,103.9137Z" fill="#d7c6ba"/><path d="M66.1139,110.0584a2.1121,2.1121,0,0,0-2.0156,1.498H68.13A2.1126,2.1126,0,0,0,66.1139,110.0584Z" fill="#d7c6ba"/><path d="M59.6915,95.8648a2.12,2.12,0,1,0-2.1192-2.12A2.12,2.12,0,0,0,59.6915,95.8648Z" fill="#d7c6ba"/><path d="M53.2691,95.8648a2.12,2.12,0,1,0-.5108-4.1711l-1.5392,2.5629A2.1153,2.1153,0,0,0,53.2691,95.8648Z" fill="#d7c6ba"/><path d="M61.8107,99.89a2.1192,2.1192,0,1,0-2.1192,2.12A2.12,2.12,0,0,0,61.8107,99.89Z" fill="#d7c6ba"/><path d="M61.26,105.5636a4.0215,4.0215,0,0,1-.5477,2.331,2.12,2.12,0,0,0,1.0995-1.86l.0041.002a2.1105,2.1105,0,0,0-.25-1C61.36,105.1886,61.2249,105.3566,61.26,105.5636Z" fill="#d7c6ba"/><path d="M59.6915,110.0584a2.1122,2.1122,0,0,0-2.0157,1.498h4.0314A2.1124,2.1124,0,0,0,59.6915,110.0584Z" fill="#d7c6ba"/><path d="M53.2691,97.77a2.12,2.12,0,1,0,2.119,2.12A2.12,2.12,0,0,0,53.2691,97.77Z" fill="#d7c6ba"/><path d="M51.1517,106.0355a2.1185,2.1185,0,0,0,2.1183,2.1189.9826.9826,0,0,0,.16-.0088v-4.22a.9826.9826,0,0,0-.16-.0088A2.1187,2.1187,0,0,0,51.1517,106.0355Z" fill="#d7c6ba"/><path d="M53.2691,110.0584a2.1124,2.1124,0,0,0-2.0159,1.498h4.0314A2.1122,2.1122,0,0,0,53.2691,110.0584Z" fill="#d7c6ba"/><path d="M46.8475,97.77a2.12,2.12,0,1,0,2.1192,2.12A2.12,2.12,0,0,0,46.8475,97.77Z" fill="#d7c6ba"/><circle cx="46.8475" cy="106.0336" r="2.1195" fill="#d7c6ba"/><path d="M46.8475,110.0584a2.1122,2.1122,0,0,0-2.0157,1.498h4.0314A2.1124,2.1124,0,0,0,46.8475,110.0584Z" fill="#d7c6ba"/><path d="M40.4249,91.6248a2.12,2.12,0,1,0,2.1193,2.12A2.12,2.12,0,0,0,40.4249,91.6248Z" fill="#d7c6ba"/><path d="M40.4249,97.77a2.12,2.12,0,1,0,2.1193,2.12A2.1195,2.1195,0,0,0,40.4249,97.77Z" fill="#d7c6ba"/><path d="M40.4249,103.9137a2.12,2.12,0,1,0,2.1193,2.12A2.1194,2.1194,0,0,0,40.4249,103.9137Z" fill="#d7c6ba"/><path d="M40.4249,110.0584a2.1122,2.1122,0,0,0-2.0155,1.498h4.0314A2.1127,2.1127,0,0,0,40.4249,110.0584Z" fill="#d7c6ba"/><path d="M34.0024,91.6248a2.12,2.12,0,1,0,2.1193,2.12A2.12,2.12,0,0,0,34.0024,91.6248Z" fill="#d7c6ba"/><path d="M34.0024,97.77a2.12,2.12,0,1,0,2.1193,2.12A2.12,2.12,0,0,0,34.0024,97.77Z" fill="#d7c6ba"/><path d="M34.0024,103.9137a2.12,2.12,0,1,0,2.1193,2.12A2.1195,2.1195,0,0,0,34.0024,103.9137Z" fill="#d7c6ba"/><path d="M34.0024,110.0584a2.1123,2.1123,0,0,0-2.0156,1.498h4.0314A2.1126,2.1126,0,0,0,34.0024,110.0584Z" fill="#d7c6ba"/><path d="M29.6991,93.7447A2.1042,2.1042,0,0,0,27.19,91.6641l-.5355,3.9792a2.1048,2.1048,0,0,0,3.0447-1.8986Z" fill="#d7c6ba"/><path d="M27.58,102.01a2.12,2.12,0,1,0-1.27-3.8078l-.4008,2.9782A2.1079,2.1079,0,0,0,27.58,102.01Z" fill="#d7c6ba"/><path d="M31.8833,87.6278a2.1192,2.1192,0,1,0,4.2384,0c0-.0688-.0139-.134-.02-.2012a5.0788,5.0788,0,0,1-1.4873-1.8183,2.0958,2.0958,0,0,0-.6116-.1006A2.12,2.12,0,0,0,31.8833,87.6278Z" fill="#d7c6ba"/><path d="M29.6991,87.6278a2.12,2.12,0,0,0-1.6868-2.0752L27.45,89.7347c.0439.0027.0857.0132.13.0132A2.12,2.12,0,0,0,29.6991,87.6278Z" fill="#d7c6ba"/><path d="M66.1139,85.5077a2.12,2.12,0,1,0,2.1193,2.12A2.12,2.12,0,0,0,66.1139,85.5077Z" fill="#d7c6ba"/><circle cx="27.58" cy="106.0336" r="2.1195" fill="#d7c6ba"/><path d="M27.58,110.0584a2.1124,2.1124,0,0,0-2.0157,1.498h4.0314A2.1124,2.1124,0,0,0,27.58,110.0584Z" fill="#d7c6ba"/><path d="M100.9607,113.5H1a1,1,0,0,1,0-2h99.9611a1,1,0,0,1,0,2Z"/><path d="M31.4781,91.3049V92.42h3.6755c-.019.289-.2229,1.657-2.3751,3.92l-.25.263.3219-.167a8.0251,8.0251,0,0,0,3.9565-5.0579l.015-.073Z"/><path d="M34.1659,95.6884a2.7681,2.7681,0,0,0-.6.063l-.2589.057.2589.061a2.7,2.7,0,0,1-.061,5.2669l-.2609.056.2589.063a2.8229,2.8229,0,1,0,.6588-5.5679"/><path d="M32.6646,98.5551a1.187,1.187,0,1,0,1.1865,1.1869h0a1.1887,1.1887,0,0,0-1.1865-1.1869" fill="#fff"/><path d="M59.3579,91.3049V92.42h3.6746c-.019.289-.2229,1.657-2.3751,3.92l-.25.263.3219-.167a8.0257,8.0257,0,0,0,3.9565-5.0579l.0149-.073Z"/><path d="M62.0478,95.6884a2.7681,2.7681,0,0,0-.6.063l-.2589.057.2589.061a2.7,2.7,0,0,1-.0609,5.2669l-.2609.056.2589.063a2.8229,2.8229,0,1,0,.6587-5.5679"/><path d="M60.55,98.5551A1.187,1.187,0,1,0,61.736,99.742h0A1.1887,1.1887,0,0,0,60.55,98.5551" fill="#fff"/><path d="M24.5791,112.2047a.6658.6658,0,0,1-.087-.006.6471.6471,0,0,1-.5549-.7274l0-.0006L27.5539,84.62a.6471.6471,0,1,1,1.2825.173l-3.6126,26.8506a.6469.6469,0,0,1-.64.561"/><path d="M71.7707,112.2047a.6469.6469,0,0,1-.64-.561L67.52,84.793a.6471.6471,0,1,1,1.2825-.173l3.6126,26.8507a.647.647,0,0,1-.5542.7279h-.0006a.6658.6658,0,0,1-.087.006"/><path d="M48.0815,92.08a6.24,6.24,0,0,1-4.84-2.2939,6.1787,6.1787,0,0,1-3.3407.9679,6.2609,6.2609,0,0,1-6.0526-4.67A6.26,6.26,0,0,1,25.4513,80.59a6.1606,6.1606,0,0,1-1.7694.258,6.2644,6.2644,0,0,1-5.12-9.8709A6.2609,6.2609,0,0,1,16.6147,60.413a6.2566,6.2566,0,0,1,2.1122-10.6149A6.26,6.26,0,0,1,26.124,40.22a.6469.6469,0,0,1-.4447,1.215q-.0281-.01-.0551-.0231a4.9646,4.9646,0,0,0-5.247,8.2719.647.647,0,0,1-.34,1.122,4.9636,4.9636,0,0,0-1.9993,9.0649.6471.6471,0,0,1,0,1.082,4.9653,4.9653,0,0,0,1.7993,9.0338.647.647,0,0,1,.3389,1.093,4.9634,4.9634,0,0,0,5.6708,7.9769.6468.6468,0,0,1,.9256.648,4.9649,4.9649,0,0,0,7.2642,4.8869.6477.6477,0,0,1,.9456.5,4.9659,4.9659,0,0,0,4.9271,4.373,4.9131,4.9131,0,0,0,3.0828-1.077.6466.6466,0,0,1,.9088.1037c.0123.0155.024.0317.0349.0483a4.9648,4.9648,0,0,0,9.1214-2.718.6473.6473,0,1,1,1.2945,0h0a6.27,6.27,0,0,1-6.2606,6.2629"/><path d="M48.2632,92.08a6.27,6.27,0,0,1-6.2615-6.2629.6473.6473,0,1,1,1.2945,0h0a4.9647,4.9647,0,0,0,9.1224,2.718.6466.6466,0,0,1,.8954-.1869q.0249.0163.0483.0349a4.912,4.912,0,0,0,3.0828,1.077,4.9657,4.9657,0,0,0,4.927-4.373.6477.6477,0,0,1,.9457-.5,4.9026,4.9026,0,0,0,2.3221.578,4.9739,4.9739,0,0,0,4.967-4.9689c0-.168-.009-.334-.025-.5a.6478.6478,0,0,1,.9257-.646,4.9073,4.9073,0,0,0,2.1511.5,4.9684,4.9684,0,0,0,3.5207-8.4729.647.647,0,0,1,.3388-1.093A4.9655,4.9655,0,0,0,78.3175,60.95a.6472.6472,0,0,1,0-1.082,4.9633,4.9633,0,0,0-1.9992-9.0649.6471.6471,0,0,1-.34-1.122,4.9665,4.9665,0,0,0-5.25-8.2679.6469.6469,0,0,1-.5549-1.1688q.027-.0129.0551-.0231a6.2583,6.2583,0,0,1,7.3971,9.5778A6.256,6.256,0,0,1,79.738,60.413a6.2606,6.2606,0,0,1-1.9622,10.5638A6.2592,6.2592,0,0,1,70.8874,80.59a6.2579,6.2579,0,0,1-8.3967,5.4939,6.2609,6.2609,0,0,1-6.0526,4.67,6.1758,6.1758,0,0,1-3.3407-.9679,6.2409,6.2409,0,0,1-4.84,2.2939"/><path d="M42.5633,24.0789a.6457.6457,0,0,1-.6-.4109l-3.0479-7.7729-.7487,7.6a.6477.6477,0,0,1-1.2885-.126l1.0126-10.2819a.6478.6478,0,0,1,1.2466-.173l4.0274,10.28a.6477.6477,0,0,1-.6.8839"/><path d="M35.917,25.4738a.4321.4321,0,0,1-.3559-.674,3.8286,3.8286,0,0,1,2.4911-1.62,2.5377,2.5377,0,0,1,1.9122.74,3.2747,3.2747,0,0,1,2.2341-.785,2.8174,2.8174,0,0,1,1.8413.912.4319.4319,0,1,1-.6383.582l-.0234-.028a1.9673,1.9673,0,0,0-1.2525-.608,2.6474,2.6474,0,0,0-1.8993.829.4307.4307,0,0,1-.6078-.03,1.8889,1.8889,0,0,0-1.4994-.754,3.006,3.006,0,0,0-1.8423,1.246.4316.4316,0,0,1-.3568.188"/><path d="M53.7862,24.0789a.6479.6479,0,0,1-.6-.8839l4.0254-10.28a.6477.6477,0,0,1,1.2495.172l1.0126,10.28a.6477.6477,0,0,1-1.2885.126l-.7487-7.6L54.391,23.666a.6457.6457,0,0,1-.6.4109"/><path d="M60.4323,25.4748a.431.431,0,0,1-.3569-.188,3.0058,3.0058,0,0,0-1.8423-1.246,1.888,1.888,0,0,0-1.4994.754.4306.4306,0,0,1-.6077.03,2.6449,2.6449,0,0,0-1.8993-.829,1.9688,1.9688,0,0,0-1.2535.608.4314.4314,0,1,1-.66-.556,2.8163,2.8163,0,0,1,1.8413-.912,3.2727,3.2727,0,0,1,2.2342.785,2.5352,2.5352,0,0,1,1.9112-.74,3.8252,3.8252,0,0,1,2.491,1.621.4309.4309,0,0,1-.3558.674"/><path d="M48.97,21.6122a.6452.6452,0,0,1-.41-.147c-.1-.084-2.583-2.058-4.4982-.053a.6474.6474,0,1,1-.9367-.894c2.1992-2.3,5.0521-1.041,6.2536-.053a.647.647,0,0,1-.4108,1.148"/><path d="M52.752,21.6112a.6448.6448,0,0,1-.4678-.2c-1.9133-2-4.3933-.031-4.4982.054a.6469.6469,0,0,1-.82-1c1.2-.988,4.0564-2.249,6.2535.053a.6469.6469,0,0,1-.4678,1.094"/><path d="M39.0287,40.4268a3.4986,3.4986,0,1,1-3.4986-3.5,3.4993,3.4993,0,0,1,3.4986,3.5" fill="#d4d5d5"/><path d="M39.0307,40.4251a3.4987,3.4987,0,1,1-6.9973,0,10.8466,10.8466,0,0,1,6.9973,0" fill="#fff"/><path d="M37.8137,40.4263a2.28,2.28,0,1,1-2.28-2.2809h0a2.2806,2.2806,0,0,1,2.28,2.2809" fill="#302d2c"/><path d="M37.7856,40.0843a10.9024,10.9024,0,0,0-2.3431-.235,10.6231,10.6231,0,0,0-2.16.239,2.277,2.277,0,0,1,4.5033,0"/><path d="M35.5323,44.14a3.713,3.713,0,1,1,3.7116-3.713,3.7121,3.7121,0,0,1-3.7116,3.713m0-6.9949a3.282,3.282,0,1,0,3.2807,3.282,3.2813,3.2813,0,0,0-3.2807-3.282"/><path d="M34.9179,38.7233a.8.8,0,1,1-.8-.8h0a.8.8,0,0,1,.8.8" fill="#fff"/><path d="M64.31,40.4268a3.4987,3.4987,0,1,1-3.4986-3.5,3.4993,3.4993,0,0,1,3.4986,3.5" fill="#d4d5d5"/><path d="M64.3114,40.4251a3.4987,3.4987,0,1,1-6.9973,0,10.8466,10.8466,0,0,1,6.9973,0" fill="#fff"/><path d="M63.0943,40.4263a2.28,2.28,0,1,1-2.28-2.2809h0a2.28,2.28,0,0,1,2.28,2.2809" fill="#302d2c"/><path d="M63.0662,40.0843a10.9018,10.9018,0,0,0-2.3431-.235,10.6221,10.6221,0,0,0-2.16.239,2.277,2.277,0,0,1,4.5032,0"/><path d="M60.8149,44.14a3.713,3.713,0,1,1,3.7116-3.713h0a3.7174,3.7174,0,0,1-3.7116,3.713m0-6.9949a3.282,3.282,0,1,0,3.2807,3.282h0a3.2844,3.2844,0,0,0-3.2807-3.282"/><path d="M60.1985,38.7233a.8.8,0,1,1-.8-.8.8.8,0,0,1,.8.8h0" fill="#fff"/><path d="M27.6908,40.1008a.648.648,0,0,1-.5928-.907l4.3523-9.95a11.8711,11.8711,0,0,1-12.5231-9.54c-.5258-2.3279-.3909-5.0859,1.1465-5.6389,7.0633-2.5389,14.4214,8.1,14.7313,8.5559a.6471.6471,0,1,1-1.0686.73h0c-.07-.1-7.0972-10.27-13.2248-8.0679-.4.145-.8717,1.694-.3219,4.1349.3559,1.58,2.619,9.4069,12.2172,8.4589a.647.647,0,0,1,.6558.9L28.2845,39.7128a.6467.6467,0,0,1-.5927.388"/><path d="M68.6567,40.1008a.6467.6467,0,0,1-.5927-.388L63.2858,28.7819a.647.647,0,0,1,.6558-.9c9.6022.95,11.8614-6.88,12.2172-8.4589.55-2.4409.083-3.99-.3219-4.1349-6.1236-2.2-13.1548,7.9649-13.2248,8.0679a.6471.6471,0,1,1-1.0686-.73h0c.31-.454,7.667-11.1,14.7313-8.5559,1.5374.552,1.6723,3.31,1.1465,5.6389a11.8721,11.8721,0,0,1-12.5231,9.5349L69.25,39.1968a.648.648,0,0,1-.5928.907"/><path d="M44.1037,105.8541a.432.432,0,0,1-.36-.669l10.29-15.67a.4319.4319,0,0,1,.7217.473L44.4645,105.66a.4313.4313,0,0,1-.3608.195"/><path d="M48.4519,98.507a.4311.4311,0,0,1-.3369-.161l-6.6594-8.3a.4319.4319,0,0,1,.6737-.54l6.6584,8.3a.432.432,0,0,1-.3358.7"/><path d="M53.4292,112.5023a.431.431,0,0,1-.4319-.43v-8.32l-18.1179,4.3059a.432.432,0,0,1-.2-.84L53.33,102.7874a.4311.4311,0,0,1,.5308.42v8.8649a.4309.4309,0,0,1-.43.432h-.002"/><path d="M82.69,92.3727l-.3679,2.264-1.09,6.72-1.3365,8.2119h-10.56l-1.1786-7.3269-.9306.071L65.6,92.3727Z" fill="#fff"/><path d="M78.1841,88.7513A5.0043,5.0043,0,0,1,82.89,92.3722H65.673a5.0032,5.0032,0,0,1,4.7061-3.6209" fill="#fff"/><path d="M67.809,105.9525H62.525a.431.431,0,0,1-.4318-.43v-.629a.4319.4319,0,1,1,.8627-.0416c.0006.0138.0006.0277,0,.0416v.2h4.3453l-.7-4.279a.4318.4318,0,0,1,.8517-.139l.7777,4.779a.4309.4309,0,0,1-.3563.4944.4258.4258,0,0,1-.0695.0055"/><path d="M71.3418,101.7093H67.12a.432.432,0,0,1,0-.863h4.2223a.432.432,0,0,1,0,.863"/><path d="M71.9866,90.3391a.3239.3239,0,0,1-.2169-.083c-.81-.732-.3-1.463.0339-1.948.4129-.595.5548-.853-.0589-1.284a.3239.3239,0,0,1,.3406-.5511.314.314,0,0,1,.03.0211c1.1666.817.5738,1.671.22,2.182-.3918.566-.4888.776-.1319,1.1a.324.324,0,0,1-.2169.564"/><path d="M74.1976,90.3391a.3243.3243,0,0,1-.217-.083c-.81-.732-.3-1.464.033-1.948.4129-.595.5548-.853-.0589-1.284a.3234.3234,0,0,1,.3708-.53c1.1666.816.5738,1.671.2209,2.182-.3928.566-.4888.776-.1319,1.1a.324.324,0,0,1-.2169.564"/><path d="M76.4056,90.3391a.3239.3239,0,0,1-.2169-.083c-.81-.732-.3-1.464.034-1.948.4118-.595.5547-.853-.059-1.284a.3239.3239,0,0,1,.3406-.5511.3021.3021,0,0,1,.03.0211c1.1666.817.5738,1.671.22,2.182-.3928.566-.4888.776-.1319,1.1a.324.324,0,0,1-.2169.564"/><path d="M82.8886,92.8046H65.67a.4321.4321,0,0,1-.4158-.545c.01-.039,1.1135-3.94,5.123-3.94a.432.432,0,0,1,0,.863,4.3813,4.3813,0,0,0-4.0864,2.758H82.2689a4.3815,4.3815,0,0,0-4.0864-2.758.432.432,0,0,1,0-.863c4.0094,0,5.112,3.9,5.123,3.94a.4321.4321,0,0,1-.4159.545"/><path d="M80.0942,109.9988H69.5383a.4318.4318,0,0,1-.4258-.364l-1.1-6.8919h-5.054v.847a.4319.4319,0,1,1-.8627.0416.4123.4123,0,0,1,0-.0416v-1.278a.4319.4319,0,0,1,.4318-.432h5.8587a.431.431,0,0,1,.4259.363l1.1,6.8919h9.82l2.655-16.3317H66.1836l1.0316,6.3349h6.6384V94.8131a.4319.4319,0,1,1,.8627-.0416.4123.4123,0,0,1,0,.0416V99.57a.431.431,0,0,1-.43.432H66.8473a.4319.4319,0,0,1-.4258-.362L65.25,92.44a.4309.4309,0,0,1,.3563-.4944.4258.4258,0,0,1,.0695-.0056H82.8931a.4318.4318,0,0,1,.4312.4326.4225.4225,0,0,1-.0054.0674L80.52,109.64a.4319.4319,0,0,1-.4258.362"/><path d="M81.23,101.7873h-.029l-1.2885-.081a.432.432,0,0,1,.054-.8609l1.2885.081a.432.432,0,0,1-.027.8619"/><path d="M53.8135,112.0453a.5391.5391,0,0,1-.4408-.848,8.64,8.64,0,0,1,.87-1.025,3.4468,3.4468,0,0,1,2.8878-1.3389,2.7476,2.7476,0,0,0,3.1088-1.21.2564.2564,0,0,1,.022-.035,3.5311,3.5311,0,0,0,.4628-1.936,1.0521,1.0521,0,0,1,.52-1.052,4.9114,4.9114,0,0,1,.6878-.389c.0859-.042.1919-.095.2869-.146a12.1306,12.1306,0,0,0-2.2911-.856,6.28,6.28,0,0,0-5.91,1.09.54.54,0,0,1-.6578-.856,7.3949,7.3949,0,0,1,6.8773-1.267c2.657.8,3.1868,1.264,3.2358,1.839.051.611-.54.9-1.0616,1.163a4.1966,4.1966,0,0,0-.5348.3.732.732,0,0,0-.08.066,4.6363,4.6363,0,0,1-.6237,2.6269c-.008.014-.017.027-.026.04a3.798,3.798,0,0,1-4.1984,1.69c-.5-.088-1.2.282-1.9452,1.034a7.7643,7.7643,0,0,0-.7517.883.54.54,0,0,1-.4419.23"/><g style="isolation:isolate"><g style="isolation:isolate"><path d="M115.2842,23.8265v-2.541a9.7362,9.7362,0,0,1-1.127.9131,13.5006,13.5006,0,0,1-1.3139.8134,11.2341,11.2341,0,0,1-1.232.583,3.0289,3.0289,0,0,0-.3133-.539,2.9485,2.9485,0,0,0-.4232-.4834,10.0386,10.0386,0,0,0,1.1163-.4512,12.2841,12.2841,0,0,0,1.2095-.6543,10.0214,10.0214,0,0,0,1.0718-.7539h-3.2438V19.6576h4.2556v-.5059h-1.3417V14.7406h1.045a5.3556,5.3556,0,0,0,.225-.5058,5.2162,5.2162,0,0,0,.2035-.6162l1.3525.209a3.4785,3.4785,0,0,1-.165.3906c-.0878.1865-.1723.3613-.2528.5224h1.6053v4.4111h-1.3412v.5059h4.2991v1.0556h-3.2546a10.4737,10.4737,0,0,0,1.0611.7315,12.9181,12.9181,0,0,0,1.1929.6435,9.291,9.291,0,0,0,1.1216.4512,3.15,3.15,0,0,0-.4178.5,3.32,3.32,0,0,0-.3187.5556,11.5784,11.5784,0,0,1-1.2373-.583,13.0645,13.0645,0,0,1-1.3193-.8134,8.355,8.355,0,0,1-1.127-.9356v2.5635Zm-3.7827-4.4883-.5608-1.0673q.2533-.0983.5994-.2686t.7145-.374q.3684-.2035.7039-.4131c.2235-.1386.4124-.2676.5662-.3847.0146.0957.0346.2177.0605.3681s.0532.2988.0825.4453.0512.2686.0659.3633q-.2965.21-.72.4678t-.83.4892Q111.7763,19.1957,111.5015,19.3382Zm1.2647-2.6288q-.1765-.2418-.4564-.5557t-.5828-.6162a4.8271,4.8271,0,0,0-.5774-.5l.88-.8027a5.9282,5.9282,0,0,1,.5882.5166q.3243.3194.6213.6328t.4618.5224a3.0771,3.0771,0,0,0-.3027.2256q-.1815.148-.3519.3018C112.9326,16.5375,112.8394,16.6283,112.7662,16.7094Zm2.4082-.22h1.539v-.7265h-1.539Zm0,1.628h1.539V17.37h-1.539ZM120.1,19.3714a6.1941,6.1941,0,0,0-.6267-.5556q-.396-.3135-.8029-.6045a6.7992,6.7992,0,0,0-.6926-.4463l.737-.9453c.1538.0947.3314.2129.533.3516s.4086.2861.6214.44.4124.3037.5993.45a5.0855,5.0855,0,0,1,.4452.3857q-.1209.11-.286.28c-.11.1133-.2124.2295-.3075.3467A3.1931,3.1931,0,0,0,120.1,19.3714Zm-1.2314-2.8271a1.7,1.7,0,0,0-.2309-.28c-.11-.1143-.2221-.2237-.3353-.33a2.065,2.065,0,0,0-.2914-.2363q.2305-.1758.55-.4619t.6267-.6q.3083-.3135.4949-.545l.9674.7373a6.4841,6.4841,0,0,1-.5164.5723c-.2128.2119-.431.42-.6545.6211S119.0518,16.3979,118.8688,16.5443Z"/><path d="M125.972,23.3421a4.7431,4.7431,0,0,1-1.4238-.1758,1.3614,1.3614,0,0,1-.7917-.5937,2.2207,2.2207,0,0,1-.2474-1.1328V14.1684l1.44.0879q-.0219.1875-.0439.6269-.0221.441-.0332.9463-.011.4073-.0161.8906-.0059.485-.0059,1.0674v3.3876a.73.73,0,0,0,.2695.66,1.8211,1.8211,0,0,0,.94.1758,5.1787,5.1787,0,0,0,2.04-.4073,6.2712,6.2712,0,0,0,1.6658-1.0117q.0109.21.05.501t.0879.55c.0331.1719.0605.3066.0824.4014a7.0243,7.0243,0,0,1-1.842.9345A6.5941,6.5941,0,0,1,125.972,23.3421Z"/><path d="M136.7915,23.6722a2.6859,2.6859,0,0,0-.5106-.4014,3.5407,3.5407,0,0,0-.5886-.3135,6.426,6.426,0,0,0,1.4125-1.3476,8.0127,8.0127,0,0,0,1.04-1.7431,9.32,9.32,0,0,0-.9567-.2364c-.3231-.0625-.6374-.1084-.9459-.1377a10.6252,10.6252,0,0,1-.5877.9844,5.1387,5.1387,0,0,1-.6111.7529,2.5648,2.5648,0,0,1-1.0054.66,2.1106,2.1106,0,0,1-1.045.1045,1.3944,1.3944,0,0,1-.819-.4229,1.2827,1.2827,0,0,1-.3188-.9131,1.8331,1.8331,0,0,1,.4178-1.166,2.8581,2.8581,0,0,1,1.2144-.8476,5.5766,5.5766,0,0,1,1.9524-.3408q.2971-.627.572-1.3311t.4949-1.3964q-.407.11-.8522.2138t-.8356.1817c-.2606.0517-.4754.0879-.6433.11l-.3524-1.2646c.1913-.0078.4364-.0293.737-.0664s.617-.084.9508-.1426.6492-.1211.946-.1875a5.4718,5.4718,0,0,0,.7087-.1982l.9244.4951q-.1874.7706-.5281,1.749a20.7376,20.7376,0,0,1-.781,1.9248q.4175.0556.8523.1435t.8854.209a7.5237,7.5237,0,0,0,.1542-.7646,6.603,6.603,0,0,0,.0654-.7539l1.3091.3193a8.5049,8.5049,0,0,1-.2646,1.5625q.4394.1421.863.3076t.8082.3515a2.8794,2.8794,0,0,0-.2411.3526,4.1289,4.1289,0,0,0-.2372.456q-.1039.2373-.17.4131c-.2274-.125-.4607-.248-.6979-.3691a7.7614,7.7614,0,0,0-.7322-.3242,9.1966,9.1966,0,0,1-1.0884,1.8866A6.9343,6.9343,0,0,1,136.7915,23.6722Zm-3.7822-3.168a.3049.3049,0,0,0,.1869.2256.61.61,0,0,0,.412.0274,1.1726,1.1726,0,0,0,.5339-.33,3.3522,3.3522,0,0,0,.33-.3955,5.9829,5.9829,0,0,0,.3514-.55,3.2037,3.2037,0,0,0-1.3964.4014Q132.9659,20.1848,133.0093,20.5042Z"/><path d="M142.5968,23.86a3.9407,3.9407,0,0,0-.2089-.3633q-.1317-.21-.285-.418a1.7337,1.7337,0,0,0-.3085-.33,6.0136,6.0136,0,0,0,2.953-2.2109,7.1053,7.1053,0,0,0,1.0933-3.8505h-3.9028V15.4662h4.1781V13.7944h1.44v1.6718h4.2123v1.2207h-4.5305c-.0078.1982-.0185.3926-.0332.583s-.0332.3818-.0546.5723h3.5289q-.01.5389-.0606,1.1767-.0483.6387-.1318,1.2705-.0819.6329-.1815,1.166a6.6037,6.6037,0,0,1-.2089.8642,2.58,2.58,0,0,1-.45.88,1.3461,1.3461,0,0,1-.6551.4229,3.4251,3.4251,0,0,1-.9615.1162h-1.0884a3.93,3.93,0,0,0-.0606-.4571q-.05-.2694-.11-.5273a2.1828,2.1828,0,0,0-.1259-.4023h1.11a1.2907,1.2907,0,0,0,.6707-.1367.845.845,0,0,0,.33-.49,5.3344,5.3344,0,0,0,.1874-.7636q.0879-.4791.1533-.99a7.0848,7.0848,0,0,0,.0664-.8857h-2.2648a6.9077,6.9077,0,0,1-1.4906,2.8271A7.8034,7.8034,0,0,1,142.5968,23.86Z"/><path d="M153.3954,23.3313a10.3574,10.3574,0,0,1-.1211-1.1054q-.044-.6768-.0605-1.5068t-.0049-1.7158q.01-.8862.0547-1.7334t.1152-1.5615A11.5288,11.5288,0,0,1,153.55,14.52l1.2534.2979a6.104,6.104,0,0,0-.203,1.0332c-.0557.4336-.0976.915-.1269,1.4472s-.0479,1.0791-.0547,1.6445-.0019,1.1123.0166,1.6445.0469,1.0166.0879,1.4571a9.1964,9.1964,0,0,0,.1483,1.0673Zm4.0794-.1318a2.1611,2.1611,0,0,1-1.3744-.5058,1.44,1.44,0,0,1-.5057-1.1446,1.3324,1.3324,0,0,1,.2753-.7753,1.82,1.82,0,0,1,.7478-.5723,2.836,2.836,0,0,1,1.1538-.2139,6.3358,6.3358,0,0,1,.66.0323c-.0068-.3223-.0185-.6885-.0332-1.1s-.0293-.8584-.0439-1.3418q-.6809.044-1.3188.05c-.4257.0029-.7888-.002-1.0895-.0166l-.0878-1.3428a7.37,7.37,0,0,0,1.0728.0723q.6648.0058,1.4018-.0283c-.0078-.293-.0127-.5918-.0166-.8965s-.0058-.6133-.0058-.9287h1.2866q-.01.4174-.0166.8574c-.0039.294-.0049.5908-.0049.8916q.659-.0556,1.1978-.1269a5.0724,5.0724,0,0,0,.8141-.1592V17.27a7.8748,7.8748,0,0,1-.8356.1211q-.5286.0557-1.1441.11.0219.8026.0556,1.5341t.0547,1.2822a6.75,6.75,0,0,1,1.188.5606,12.1579,12.1579,0,0,1,1.1207.7587,2.0119,2.0119,0,0,0-.28.3028,4.5355,4.5355,0,0,0-.2909.4179,3.6467,3.6467,0,0,0-.1982.3574,7.23,7.23,0,0,0-1.5169-1.0781,1.5142,1.5142,0,0,1-.6658,1.2373A2.7591,2.7591,0,0,1,157.4748,23.2Zm.1-1.122a1.0619,1.0619,0,0,0,.6755-.1817.8.8,0,0,0,.2255-.6543v-.0771a4.4552,4.4552,0,0,0-.7809-.11,1.2446,1.2446,0,0,0-.6541.1319.4512.4512,0,0,0-.2577.374.402.402,0,0,0,.2089.374A1.0513,1.0513,0,0,0,157.5744,22.0775Z"/><path d="M163.533,23.7386a5.5994,5.5994,0,0,0-.3846-.5889,3.2025,3.2025,0,0,0-.4725-.5224,9.7541,9.7541,0,0,0,2.1984-1.4571,6.5454,6.5454,0,0,0,1.5453-1.997,5.5019,5.5019,0,0,0,.5662-2.497V13.9819H168.35v2.32a5.755,5.755,0,0,0,.3632,2.0576,6.5186,6.5186,0,0,0,.9888,1.749,7.8637,7.8637,0,0,0,1.4184,1.3906,8.3491,8.3491,0,0,0,1.66.9854,5.4593,5.4593,0,0,0-.4559.5937,6.3049,6.3049,0,0,0-.39.6377,9.277,9.277,0,0,1-1.7591-1.1875,8.7827,8.7827,0,0,1-1.4467-1.5732,8.0459,8.0459,0,0,1-.984-1.8261,6.4,6.4,0,0,1-.9567,1.8534,8.95,8.95,0,0,1-1.473,1.5625A10.064,10.064,0,0,1,163.533,23.7386Z"/></g><g style="isolation:isolate"><path d="M118.7809,37.6065a5.4439,5.4439,0,0,1-2.029-.248,3.01,3.01,0,0,1-1.3852-.9072,2.2356,2.2356,0,0,1-.5-1.4746,2.3183,2.3183,0,0,1,.2309-1.0332,2.8438,2.8438,0,0,1,.6374-.8476q-.7365.1552-1.44.33t-1.27.3526a6.654,6.654,0,0,0-.9069.3408l-.4842-1.2324c.0884-.0147.22-.04.3963-.0772s.4178-.0879.7253-.1533a2.603,2.603,0,0,0,.924-.44,9.1042,9.1042,0,0,0,1.0279-.8418,12.2212,12.2212,0,0,0,.9733-1.0224,9.7607,9.7607,0,0,0,.7477-.9951c-.286.0654-.5959.1318-.9293.1972s-.6526.1211-.9567.1651-.5588.0732-.7643.0878l-.3846-1.2206q.4064,0,.9566-.05c.3666-.0323.7366-.0752,1.11-.126s.7185-.1143,1.0338-.1875a4.893,4.893,0,0,0,.7366-.22l1.1.704a7.91,7.91,0,0,1-.66,1.0782,11.5364,11.5364,0,0,1-.9947,1.21,10.3628,10.3628,0,0,1-1.2373,1.1221q.8684-.1758,1.71-.3526t1.4955-.3134q.6537-.1364.962-.1924l.2089,1.2763q-.2087,0-.5057.0215c-.1976.0147-.4143.041-.6486.0772a3.59,3.59,0,0,0-1.1929.3574,2.4487,2.4487,0,0,0-.902.7646,1.9529,1.9529,0,0,0-.3461,1.166,1.011,1.011,0,0,0,.3846.8144,2.3025,2.3025,0,0,0,1.0665.4454,6.06,6.06,0,0,0,1.5507.06,2.6706,2.6706,0,0,0-.2968.6816A3.4286,3.4286,0,0,0,118.7809,37.6065Z"/><path d="M123.718,37.5948V34.46q-.4071.4512-.7478.8525t-.5388.6543l-.9674-.8359q.4613-.3852,1.0391-.9736t1.2149-1.2266V31.424c-.3227.0732-.64.1436-.9513.209s-.5628.1172-.7532.1543l-.264-1.2207q.3192-.0221.8742-.11t1.0943-.1982V28.091h1.2314v1.8369l.022-.0107.6706.4951-.6374,1.2431q.5161-.4731,1.0225-.8583a6.1676,6.1676,0,0,1,.9674-.6162,1.9225,1.9225,0,0,1,.8469-.2305,1.27,1.27,0,0,1,1.1.4668,2.2575,2.2575,0,0,1,.2529,1.5019c-.0074.1172-.024.292-.05.5225s-.0513.4892-.0767.7754-.0512.57-.0771.8525-.0493.5351-.0712.7588-.0371.3876-.044.49q-.0557.4731.3959.4726a1.2615,1.2615,0,0,0,.8356-.33,3.0877,3.0877,0,0,0,.6594-.8028,2.5343,2.5343,0,0,0,.1816.3789,4.365,4.365,0,0,0,.2748.43,2.6729,2.6729,0,0,0,.2587.3135,2.8075,2.8075,0,0,1-.638.7148,3.1464,3.1464,0,0,1-.819.4785,2.3316,2.3316,0,0,1-.8522.17q-1.77,0-1.6166-1.7813c.0147-.1172.0332-.2959.0552-.5341s.0454-.502.0712-.792.0533-.5791.0825-.8692.0552-.55.0772-.78.0366-.3984.0439-.501a1.0166,1.0166,0,0,0-.0659-.5273.3573.3573,0,0,0-.3412-.1543,1.254,1.254,0,0,0-.6155.27,8.6324,8.6324,0,0,0-.8907.7148q-.495.4453-1.0226.9737v4.4325Z"/><path d="M139.4086,37.6065a5.44,5.44,0,0,1-2.0285-.248,3.0052,3.0052,0,0,1-1.3852-.9072,2.236,2.236,0,0,1-.5008-1.4746,2.3186,2.3186,0,0,1,.2314-1.0332,2.7709,2.7709,0,0,1,.6482-.8476q-.7365.1552-1.44.33t-1.2759.3526a6.5652,6.5652,0,0,0-.9122.3408l-.473-1.2324c.0806-.0147.21-.04.3905-.0772s.4232-.0879.7312-.1533a2.6,2.6,0,0,0,.9234-.44,8.7826,8.7826,0,0,0,1.0231-.8418,13.5212,13.5212,0,0,0,.9723-1.0224,9.2793,9.2793,0,0,0,.7536-.9951c-.2861.0654-.5955.1318-.9294.1972s-.654.1211-.9615.1651-.5652.0732-.77.0878l-.3846-1.2206c.2714,0,.59-.0166.9566-.05s.738-.0752,1.1158-.126.7243-.1143,1.04-.1875a4.4724,4.4724,0,0,0,.7254-.22l1.0991.704a7.0466,7.0466,0,0,1-.6482,1.0782,11.4778,11.4778,0,0,1-2.2325,2.332q.8581-.1758,1.7-.3526t1.5-.3134q.66-.1364.9674-.1924l.2089,1.2763c-.1386,0-.3094.0069-.5105.0215s-.42.041-.655.0772a3.59,3.59,0,0,0-1.1822.3574,2.4471,2.4471,0,0,0-.901.7646,1.95,1.95,0,0,0-.3465,1.166,1.0107,1.0107,0,0,0,.3846.8144,2.2956,2.2956,0,0,0,1.0611.4454,6.0111,6.0111,0,0,0,1.5453.06,2.6671,2.6671,0,0,0-.2968.6816A3.4347,3.4347,0,0,0,139.4086,37.6065Zm.99-6.93a5.5271,5.5271,0,0,0-.5769-.709,5.6671,5.6671,0,0,0-.6433-.6l.5827-.5059q.1641.1319.412.3741t.4783.4941q.2313.2533.3631.43Zm.9566-.8574a5.2436,5.2436,0,0,0-.5827-.71,5.9146,5.9146,0,0,0-.6492-.6l.5828-.5058q.1655.1317.4129.374t.4832.4951a5.3676,5.3676,0,0,1,.369.4287Z"/><path d="M144.4116,37.5948V34.46q-.4071.4512-.7478.8525t-.5388.6543l-.9674-.8359q.4613-.3852,1.0386-.9736t1.2154-1.2266V31.424c-.3232.0732-.6394.1436-.9508.209s-.5633.1172-.7536.1543l-.2636-1.2207c.2118-.0147.5037-.0518.8737-.11s.735-.125,1.0943-.1982V28.091h1.2319v1.8369l.0215-.0107.6706.4951-.6374,1.2431q.5169-.4731,1.022-.8583a6.1966,6.1966,0,0,1,.9684-.6162,1.9189,1.9189,0,0,1,.8464-.2305,1.2673,1.2673,0,0,1,1.0991.4668,2.2544,2.2544,0,0,1,.2529,1.5019c-.0069.1172-.0235.292-.0488.5225s-.0518.4892-.0772.7754-.0517.57-.0771.8525-.05.5351-.0712.7588-.0371.3876-.044.49q-.0557.4731.3954.4726a1.26,1.26,0,0,0,.8356-.33,3.0893,3.0893,0,0,0,.66-.8028,2.638,2.638,0,0,0,.1816.3789,4.1084,4.1084,0,0,0,.2753.43,2.7009,2.7009,0,0,0,.2577.3135,2.7868,2.7868,0,0,1-.6375.7148,3.1529,3.1529,0,0,1-.819.4785,2.3316,2.3316,0,0,1-.8522.17q-1.77,0-1.6166-1.7813c.0147-.1172.0332-.2959.0547-.5341s.0459-.502.0722-.792.0528-.5791.082-.8692.0547-.55.0772-.78.0361-.3984.0439-.501a1.0155,1.0155,0,0,0-.0664-.5273.356.356,0,0,0-.3407-.1543,1.257,1.257,0,0,0-.616.27,8.6862,8.6862,0,0,0-.89.7148q-.495.4453-1.0221.9737v4.4325Z"/><path d="M153.8464,37.1222a3.0614,3.0614,0,0,0-.4012-.5723,2.7115,2.7115,0,0,0-.5448-.5058,6.0485,6.0485,0,0,0,2.3038-1.5781,6.3251,6.3251,0,0,0,1.3364-2.5684l-2.97.0879-.0986-1.2871q.1435.01.6267.0049t1.188-.0166q.7029-.01,1.4955-.0322a13.512,13.512,0,0,0,.1318-2.2441l1.3628.0107q.0117.5831-.0215,1.1328c-.0225.3672-.0547.7227-.0986,1.0674q.7688-.0221,1.44-.044t1.1275-.0439c.3035-.0147.4959-.0254.5769-.0332,0,.3076-.0186.6787-.0547,1.1113s-.0849.8779-.1435,1.3359-.121.89-.1864,1.293-.1318.73-.1982.9785a3.0441,3.0441,0,0,1-.5,1.1552,1.5425,1.5425,0,0,1-.8688.5332,6.102,6.102,0,0,1-1.4789.127,5.829,5.829,0,0,0-.1709-.6826,2.5228,2.5228,0,0,0-.3133-.6924,9.3524,9.3524,0,0,0,1.0992-.0332,1.0824,1.0824,0,0,0,.5993-.22,1.122,1.122,0,0,0,.3134-.5391,7.2185,7.2185,0,0,0,.2089-.8691q.1-.5288.1767-1.1162t.1093-1.1055l-1.9572.0655a8.2908,8.2908,0,0,1-1.49,3.19A7.4912,7.4912,0,0,1,153.8464,37.1222Z"/><path d="M168.1845,36.5607a2.382,2.382,0,0,1-1.3139-.28,1.0648,1.0648,0,0,1-.4129-.9512V33.338q-.6927,0-1.3794.0108-.6882.0117-1.2046.0166t-.7145.0273V32.1281c.161.0078.407.0146.737.0225s.7165.0127,1.16.0156.9108.0058,1.4018.0058v-1.44c-.3075,0-.6043.003-.89.0108s-.533.0127-.7419.0166-.3573.0088-.4451.0166V29.51c.1171.0078.2977.0146.5437.0224s.531.0147.8581.0215.6706.0117,1.0337.0117h1.0719q.6808,0,1.2807-.0058c.3993-.0039.7439-.0108,1.0338-.0225s.4959-.0195.6209-.0273v1.2656c-.19-.0147-.5428-.0264-1.0553-.0332s-1.14-.0108-1.88-.0108h-.0557v1.44q.6824,0,1.37-.0058t1.2749-.0108q.5886-.0043,1.0065-.0107c.2782-.0039.4695-.0088.572-.0166v1.2646c-.1757-.0146-.4715-.0254-.8854-.0322s-.9088-.0127-1.4848-.0166-1.1929-.0059-1.8528-.0059v1.419a.4642.4642,0,0,0,.1484.3964.9954.9954,0,0,0,.5555.1094c.2713,0,.5779-.0049.9186-.0166s.6667-.0273.9781-.0488.5593-.0479.7429-.0772a3.6547,3.6547,0,0,0-.0664.3741q-.0322.2416-.0547.4951c-.0146.1689-.0224.3037-.0224.4062q-.23.0337-.5828.0606t-.7644.0556q-.4115.0279-.8073.0381C168.6131,36.5577,168.3827,36.5607,168.1845,36.5607Z"/><path d="M174.804,37.672a1.5432,1.5432,0,0,1-.8024-.2149,1.6353,1.6353,0,0,1-.5828-.583,1.6463,1.6463,0,0,1-.0058-1.6328,1.6141,1.6141,0,0,1,.5828-.5781,1.6373,1.6373,0,0,1,1.6282.0059,1.6506,1.6506,0,0,1,.5828.583,1.6257,1.6257,0,0,1-.0059,1.622,1.62,1.62,0,0,1-.5886.583A1.569,1.569,0,0,1,174.804,37.672Zm0-.6162a.9647.9647,0,0,0,.71-.291.9534.9534,0,0,0,.2909-.6983.97.97,0,0,0-.2909-.7041.99.99,0,0,0-1.4076-.0058.9651.9651,0,0,0-.2909.71.9934.9934,0,0,0,.9888.9893Z"/></g><g style="isolation:isolate"><path d="M110.9959,44.6758v-.9785h3.6065v.9785Zm.2528,6.8856V48.2841h3.1335v3.2773Zm.0439-5.3564v-.99h2.991v.99Zm0,1.5293v-.99h2.991v.99Zm.0112-4.5653V42.1573h2.98V43.169Zm.9894,7.4032h1.0445V49.2743h-1.0445Zm2.6391.2968-.3519-1.1552c.1245-.0215.28-.0567.4671-.1045s.3944-.1006.6213-.1592V47.2275h-.9234v-1.11h2.8368v1.11h-.7478v1.914q.3192-.0879.6106-.17c.1938-.0557.3573-.1045.4891-.1484v1.122q-.2636.11-.66.2412-.3954.1334-.83.2647t-.83.2422Q115.2181,50.8031,114.9323,50.869Zm4.4314.5059a6.259,6.259,0,0,1-1.149-2.48,21.2809,21.2809,0,0,1-.5008-3.9219h-2.8255V43.8838H117.67q-.0109-.4834-.0161-.9951t-.0058-1.0508h1.2094l-.0219,1.0342q-.011.517,0,1.0117h1.0889q-.2094-.2856-.5061-.6318a5.0263,5.0263,0,0,0-.5277-.5449l.77-.6934q.1866.1656.4065.3965c.147.1543.288.3056.4237.456a3.9892,3.9892,0,0,1,.3241.4014,3.2382,3.2382,0,0,0-.3573.27c-.143.1211-.2694.2373-.3792.3467h.8248v1.0888h-2.0456a20.8427,20.8427,0,0,0,.3354,2.9541,6.6093,6.6093,0,0,0,.7755,2.1836q.0879-.2754.1592-.5723t.1156-.539q.1319.0775.3407.1816c.1391.0693.2748.1318.4071.1865s.227.0938.286.1162a9.1,9.1,0,0,1-.2694,1.001,4.2582,4.2582,0,0,1-.3685.8467.6757.6757,0,0,1-.594.4121A.8625.8625,0,0,1,119.3637,51.3749Z"/><path d="M124.6087,51.76q-.1325-.22-.3519-.5274a2.47,2.47,0,0,0-.5057-.5283,6.1164,6.1164,0,0,0,1.7923-.7646,2.33,2.33,0,0,0,.8683-1.0283,1.5622,1.5622,0,0,1-.7038.1757,1.9034,1.9034,0,0,1-1.3466-.4726,1.7583,1.7583,0,0,1-.5443-1.2764,1.8321,1.8321,0,0,1,.22-.9843,1.7773,1.7773,0,0,1,.6818-.6875,1.9672,1.9672,0,0,1,1.0006-.2529q.0879,0,.1538.0058c.0444.003.0917.0088.143.0157-.0146-.1319-.0293-.2676-.0439-.4063a4.205,4.205,0,0,1-.022-.44q-.89.0336-1.7371.0986-.8471.0673-1.5507.1494a10.36,10.36,0,0,0-1.1655.1924l-.187-1.2763q.3961-.0338,1.1109-.0713t1.6327-.083q.918-.044,1.8967-.0879V41.959h1.2754v1.4961q.858-.0337,1.6385-.0606t1.3964-.0439q.6158-.016.9679-.0059l-.0883,1.2871q-.6378-.0762-1.6878-.0937t-2.2267.0058c0,.2637.0093.5323.0278.8028s.0347.5322.0493.7812a2.54,2.54,0,0,1,.5389,1.6943,3.66,3.66,0,0,1-.8469,2.458A5.0064,5.0064,0,0,1,124.6087,51.76Zm1.11-3.7724a.7081.7081,0,0,0,.4837-.209.68.68,0,0,0,.1762-.4844,1.5553,1.5553,0,0,0-.0166-.2148c-.0112-.0762-.0239-.1592-.0385-.2471a.741.741,0,0,0-.5828-.2637.7223.7223,0,0,0-.5169.1973.6355.6355,0,0,0-.1977.5068.731.731,0,0,0,.1923.5225A.6257.6257,0,0,0,125.7191,47.9873Z"/><path d="M134.4828,47.4482a3.68,3.68,0,0,0-.6052-.3906c-.2636-.1436-.5364-.2822-.8185-.418a6.4732,6.4732,0,0,0-.72-.3027l.6819-1.1875c.2123.08.46.19.7419.3291s.5554.2832.819.43.4735.2715.6267.374Zm-.5174,3.5634-.7472-1.3418a8.948,8.948,0,0,0,1.6551-.5556,15.7667,15.7667,0,0,0,1.721-.8906,18.2123,18.2123,0,0,0,1.638-1.1006,15.6906,15.6906,0,0,0,1.4077-1.1875,8.4412,8.4412,0,0,0,1.022-1.1494,3.853,3.853,0,0,0,.1484.4619q.1054.2754.2255.5332a4.1575,4.1575,0,0,0,.2089.4014A10.6765,10.6765,0,0,1,139.887,47.58a18.6509,18.6509,0,0,1-3.8042,2.5469A15.94,15.94,0,0,1,133.9654,51.0116Zm2.0461-5.83a3.9425,3.9425,0,0,0-.4129-.3183q-.2694-.1875-.5877-.3906c-.2128-.1358-.4168-.2588-.61-.3692a4.6492,4.6492,0,0,0-.4783-.2412l.7468-1.1445c.1474.0732.3211.1728.5232.2969s.4061.2548.615.3906.4032.2656.5828.3906.3172.2275.4129.3076Z"/><path d="M143.4988,51.122a3.0519,3.0519,0,0,0-.4012-.5723,2.7086,2.7086,0,0,0-.5447-.5058,6.0493,6.0493,0,0,0,2.3038-1.5781,6.3263,6.3263,0,0,0,1.3364-2.5684l-2.9695.0879-.0986-1.2871q.1434.01.6267.0049t1.188-.0166q.7028-.01,1.4955-.0322a13.5228,13.5228,0,0,0,.1318-2.2441l1.3627.0107c.0078.3887,0,.7666-.0214,1.1328s-.0547.7227-.0986,1.0674q.7688-.022,1.44-.044t1.1275-.0439c.3036-.0147.4959-.0254.5769-.0332,0,.3076-.0185.6787-.0546,1.1113s-.085.8779-.1435,1.3359-.1211.89-.1865,1.293-.1318.73-.1981.9785a3.0441,3.0441,0,0,1-.5,1.1552,1.5428,1.5428,0,0,1-.8688.5332,6.1029,6.1029,0,0,1-1.479.127,5.8254,5.8254,0,0,0-.1708-.6826,2.52,2.52,0,0,0-.3134-.6924,9.3507,9.3507,0,0,0,1.0992-.0332,1.0828,1.0828,0,0,0,.5994-.22,1.1228,1.1228,0,0,0,.3134-.5391,7.2138,7.2138,0,0,0,.2089-.8691q.0995-.5287.1767-1.1162t.1093-1.1055l-1.9573.0655a8.2907,8.2907,0,0,1-1.49,3.19A7.4906,7.4906,0,0,1,143.4988,51.122Z"/><path d="M153.9567,49.747a3.76,3.76,0,0,0-.5057-.3525,3.558,3.558,0,0,0-.6052-.2969,9.0279,9.0279,0,0,0,1.22-1.831,13.7211,13.7211,0,0,0,.8913-2.1836q-.5506.0777-1.0231.1318-.4729.0556-.7585.0772l-.1649-1.2207q.3851,0,.9947-.0557.6106-.0541,1.2817-.1533.12-.517.1865-1.0176t.0878-.9736l1.2212.1758q-.0893.8247-.2313,1.6064c.2567-.0517.5037-.1045.7419-.16s.4529-.1074.6433-.1592l.1649,1.1553c-.2274.0654-.5.1318-.819.1972s-.6579.1289-1.0172.1875a15.05,15.05,0,0,1-.9673,2.6181A14.4949,14.4949,0,0,1,153.9567,49.747Zm3.0349,1.9248a1.9439,1.9439,0,0,1-1.3305-.5283,1.5646,1.5646,0,0,1-.4735-1.1768,1.3733,1.3733,0,0,1,.5662-1.0888,2.3249,2.3249,0,0,1,1.5561-.4073c.1025.0079.205.0127.3084.0166a2.604,2.604,0,0,1,.2968.0274v-2.497h1.2534v2.7939a6.4011,6.4011,0,0,1,1.1929.539,9.4748,9.4748,0,0,1,1.0943.748,2.8312,2.8312,0,0,0-.4237.5059,3.615,3.615,0,0,0-.3348.583,9.0381,9.0381,0,0,0-.737-.5986,5.678,5.678,0,0,0-.8024-.49Q159.0465,51.7715,156.9916,51.6718Zm.0986-1.1a.8776.8776,0,0,0,.6209-.1924.9117.9117,0,0,0,.204-.6768v-.0771a4.4515,4.4515,0,0,0-.7038-.0986,1.1,1.1,0,0,0-.5994.1211.4351.4351,0,0,0-.2362.374.4572.4572,0,0,0,.1757.3955A.83.83,0,0,0,157.09,50.5722Zm3.8481-4.3339a4.0529,4.0529,0,0,0-.4724-.418q-.2973-.2315-.6375-.4619t-.6765-.418a3.7807,3.7807,0,0,0-.5886-.2754l.6491-.9677q.2637.11.616.291t.7146.4072q.3631.2256.6706.4453a4.7918,4.7918,0,0,1,.5057.4072Z"/><path d="M166.7661,49.89a1.6817,1.6817,0,0,1-1.0337.248,1.2432,1.2432,0,0,1-.8581-.6221,7.3509,7.3509,0,0,1-.6267-1.2421,12.1779,12.1779,0,0,1-.4891-1.5186,13.6686,13.6686,0,0,1-.3075-1.6054,10.3049,10.3049,0,0,1-.0937-1.5078l1.3413.0117a7.2734,7.2734,0,0,0,.0332,1.1768,11.3741,11.3741,0,0,0,.2089,1.2871,10.0661,10.0661,0,0,0,.3407,1.204,4.9644,4.9644,0,0,0,.4285.93.5641.5641,0,0,0,.3358.3027.5244.5244,0,0,0,.3905-.0937,3.2938,3.2938,0,0,0,.5554-.4844,4.9772,4.9772,0,0,0,.4891-.5937,1.8224,1.8224,0,0,0,.1816.374,4.8419,4.8419,0,0,0,.2743.4072,3.25,3.25,0,0,0,.2694.3194,5.275,5.275,0,0,1-.6755.8134A3.7523,3.7523,0,0,1,166.7661,49.89Zm4.1566-2.0566a7.4618,7.4618,0,0,0-.3416-.792q-.23-.4733-.5272-.9844T169.46,45.11a4.3889,4.3889,0,0,0-.5506-.6767l1.0563-.6709a6.3926,6.3926,0,0,1,.61.7373c.2235.3076.4432.6367.66.9844s.408.6855.5769,1.0117a5.6765,5.6765,0,0,1,.3631.831,3.54,3.54,0,0,0-.6872.209A2.9823,2.9823,0,0,0,170.9227,47.833Z"/></g></g><path d="M143.5359,67.4186c-.4622,0-.9254-.0039-1.3949-.01C117.1888,67.08,102.47,58.5906,98.3953,42.1758c-1.4135-5.6923-13.9194-7.952-14.0453-7.9745l-.0283-.9785c.1191-.0283,11.9729-2.8857,13.8867-8.038,2.5864-6.96,9.46-25.4791,44.0551-25.1812,40.2309.3144,43.6451,25.87,43.7334,33.6938l-1,.0117c-.0854-7.5946-3.4205-32.398-42.7416-32.7056-.2421-.0019-.4881-.0029-.7278-.0029-33.2722,0-39.8814,17.8005-42.3824,24.5319-1.6058,4.3241-8.996,7.0311-12.61,8.119,3.7792.9268,11.62,3.4121,12.83,8.2841,3.9516,15.9167,18.3479,24.151,42.7885,24.4733,16.06.2129,27.7632-3.2539,34.8244-10.3016,5.4266-5.4179,8.1247-12.952,8.0188-22.3923l1-.0117c.1089,9.7205-2.6879,17.4968-8.3122,23.112C170.6348,63.8532,159.1485,67.4176,143.5359,67.4186Z"/><path d="M40.697,58.8212a.4312.4312,0,0,1-.3687-.6479,26.9228,26.9228,0,0,0,2.8871-12.4077.4314.4314,0,0,1,.8628-.0015v.0015a27.2638,27.2638,0,0,1-3.0044,12.8418.4313.4313,0,0,1-.3731.2138"/><path d="M55.6531,58.8212a.4316.4316,0,0,1-.3732-.2138,27.2649,27.2649,0,0,1-3.0043-12.8418.4314.4314,0,0,1,.8628-.0015v.0015a26.9216,26.9216,0,0,0,2.8871,12.4077.4312.4312,0,0,1-.3687.6479"/><path d="M48.1754,59.8236c3.1872,0,6.0043.6014,6.0043,2.0977s-3.4395,3.3212-6.0043,3.3212-6.0042-1.825-6.0042-3.3212,2.817-2.0977,6.0042-2.0977"/><path d="M48.1754,65.4584c-2.5692,0-6.22-1.8294-6.22-3.5379,0-2.0881,4.3509-2.3129,6.22-2.3129s6.22.2248,6.22,2.3129c0,1.7078-3.65,3.5379-6.22,3.5379m0-5.4189c-3.5707,0-5.7889.7209-5.7889,1.8818,0,1.3355,3.3,3.1059,5.7889,3.1059s5.7889-1.7689,5.7889-3.1059c0-1.1609-2.2182-1.8818-5.7889-1.8818"/><path d="M48.1754,68.4037a.4312.4312,0,0,1-.4314-.4312V65.2454a.4314.4314,0,0,1,.8628,0v2.7271a.4312.4312,0,0,1-.4314.4312"/><path d="M55.0491,68.4045H41.301a.4312.4312,0,0,1,0-.8624H55.0491a.4312.4312,0,0,1,0,.8624"/><path d="M48.1754,71.8451a9.1986,9.1986,0,1,1,9.2033-9.1986,9.201,9.201,0,0,1-9.2033,9.1986m0-17.321a8.121,8.121,0,1,0,8.1252,8.121h0a8.132,8.132,0,0,0-8.1252-8.121"/><path d="M45.9107,61.5571a.792.792,0,1,1-.792-.7916h0a.7919.7919,0,0,1,.792.7916" fill="#fff"/></svg>