<?xml version="1.0" encoding="utf-8"?>
<!-- Generator: Adobe Illustrator 26.3.1, SVG Export Plug-In . SVG Version: 6.00 Build 0)  -->
<svg version="1.1" id="レイヤー_1" xmlns="http://www.w3.org/2000/svg" xmlns:xlink="http://www.w3.org/1999/xlink" x="0px"
	 y="0px" viewBox="0 0 130 70" style="enable-background:new 0 0 130 70;" xml:space="preserve">
<style type="text/css">
	.st0{fill-rule:evenodd;clip-rule:evenodd;fill:#FFFFFF;}
</style>
<path id="パス_8672" class="st0" d="M33.1,69.9c5.7-4.7,8.4-14.1-5-14.3C8.7,55.2-0.7,43.4,0,25.5C0.8,7.1,17,2.6,35.2,1.4
	c21.5-1.3,40-2.7,64.7,0.6c16.1,2.1,28.9,8.2,29.9,21.2c1.9,24.3-13.3,30-31.1,32.2c-10.4,1.3-24.5,2.3-44.6,1.9
	C48.7,57.3,46.2,68.2,33.1,69.9"/>
<path id="パス_8677" d="M42.4,35.6c-0.1-0.3-0.2-0.5-0.3-0.7c-0.1-0.3-0.3-0.6-0.5-0.8c-0.2-0.2-0.3-0.4-0.5-0.6
	c1.5-0.1,2.8-0.7,4-1.7c0.9-0.8,1.4-1.9,1.4-3.1c0.1-0.9-0.1-1.7-0.5-2.5c-0.4-0.7-0.9-1.3-1.6-1.8c-0.7-0.5-1.4-0.7-2.2-0.8
	c-0.1,1.2-0.3,2.4-0.6,3.6c-0.3,1.2-0.6,2.3-1.1,3.5c-0.4,1-1,1.9-1.7,2.7c-0.4,0.5-0.9,0.8-1.5,1c-0.5,0.1-1.1,0-1.5-0.2
	c-0.5-0.2-1-0.6-1.4-1.1c-0.4-0.5-0.7-1.1-0.9-1.8c-0.2-0.7-0.3-1.4-0.3-2.2c0-1.1,0.3-2.2,0.8-3.2c0.5-0.9,1.1-1.8,1.9-2.5
	c0.8-0.7,1.8-1.2,2.8-1.6c1.1-0.4,2.2-0.5,3.4-0.4c0.9,0,1.9,0.3,2.7,0.6c0.8,0.4,1.6,0.9,2.2,1.6c0.6,0.7,1.1,1.4,1.5,2.3
	c0.4,0.9,0.5,1.9,0.4,2.9c0,1.6-0.7,3.2-1.8,4.4C45.7,34.4,44.1,35.3,42.4,35.6z M36.2,31.8c0.1,0.1,0.3,0.1,0.4,0.2
	c0.2,0,0.3-0.1,0.5-0.2c0.5-0.6,1-1.2,1.3-1.9c0.4-0.9,0.7-1.9,1-2.8c0.3-1.1,0.4-2.1,0.5-3.2c-0.8,0.2-1.6,0.6-2.3,1.1
	c-0.7,0.5-1.2,1.2-1.6,1.9c-0.4,0.8-0.6,1.6-0.7,2.5c0,0.5,0,1.1,0.2,1.5C35.6,31.2,35.9,31.5,36.2,31.8z M59.8,35.8
	c-0.1-0.4-0.3-0.7-0.5-1.1c-0.2-0.4-0.4-0.7-0.7-1c1.5,0,2.9-0.5,4.1-1.3c0.9-0.8,1.5-1.9,1.4-3.1c0-0.8-0.2-1.5-0.7-2.1
	c-0.5-0.6-1.2-1-2-1.3c-0.6,1.4-1.4,2.8-2.3,4c0.3,0.3,0.7,0.5,1.1,0.7c-0.3,0.2-0.5,0.5-0.8,0.8c-0.2,0.3-0.4,0.6-0.6,0.9
	c-0.2-0.1-0.4-0.2-0.6-0.3c-0.2-0.1-0.4-0.2-0.6-0.4c-0.7,0.8-1.5,1.5-2.4,2c-0.6,0.4-1.3,0.6-2,0.6c-0.6,0-1.1-0.3-1.5-0.7
	c-0.4-0.6-0.6-1.3-0.6-2c0-0.9,0.2-1.9,0.6-2.7c0.4-0.9,0.9-1.7,1.6-2.4c-0.4-0.7-0.7-1.4-1-2.1c-0.3-0.7-0.5-1.4-0.7-2l2-0.8
	c0.1,0.6,0.3,1.2,0.5,1.7c0.2,0.6,0.5,1.3,0.9,1.9c0.7-0.4,1.4-0.8,2.1-1c0.7-0.2,1.5-0.4,2.3-0.4H60c0.2-0.6,0.4-1.2,0.6-1.8
	c0.1-0.6,0.3-1.1,0.3-1.7l2.3,0.6c-0.1,0.5-0.2,1.1-0.4,1.6c-0.2,0.6-0.3,1.1-0.6,1.7c0.8,0.2,1.6,0.6,2.3,1.2
	c0.6,0.5,1.1,1.1,1.4,1.8c0.3,0.7,0.5,1.4,0.5,2.2c0,1.1-0.2,2.1-0.8,3.1c-0.5,0.9-1.3,1.7-2.2,2.3C62.4,35.2,61.1,35.6,59.8,35.8z
	 M54.4,31.9c0.7-0.4,1.3-1,1.9-1.6c-0.3-0.3-0.6-0.7-0.8-1c-0.3-0.4-0.5-0.7-0.8-1c-0.4,0.5-0.7,1-0.9,1.6c-0.2,0.5-0.3,1.1-0.3,1.7
	C53.4,32.1,53.7,32.2,54.4,31.9L54.4,31.9z M57.6,28.5c0.6-0.9,1.2-1.9,1.6-2.9c-0.5,0-1.1,0.2-1.6,0.4c-0.5,0.2-1,0.5-1.5,0.8
	C56.6,27.4,57.1,28,57.6,28.5L57.6,28.5z M77.5,36c-1.2,0.1-2.4-0.2-3.4-0.9c-0.7-0.5-1.1-1.3-1.1-2.1c0-0.5,0.1-1,0.4-1.4
	c0.3-0.4,0.6-0.7,1-0.9c0.4-0.2,0.9-0.3,1.4-0.3c0.8,0,1.7,0.3,2.3,0.9c0.6,0.6,1,1.3,1.1,2.2c0.5-0.2,0.9-0.6,1.1-1
	c0.3-0.5,0.5-1,0.5-1.6c0-0.5-0.1-1-0.4-1.4c-0.3-0.4-0.6-0.8-1.1-1c-0.5-0.3-1-0.4-1.6-0.4c-0.7,0-1.5,0.1-2.2,0.3
	c-0.6,0.2-1.2,0.5-1.7,1c-0.2,0.2-0.5,0.5-0.9,0.8c-0.4,0.3-0.7,0.6-1.1,0.9l-1.6-1.7c0.6-0.4,1.2-0.8,1.8-1.3
	c0.6-0.5,1.3-1.1,2-1.7c0.7-0.6,1.3-1.3,1.9-1.9c0.6-0.6,1.1-1.3,1.6-2c-0.5,0.1-1.1,0.2-1.8,0.4s-1.3,0.2-1.8,0.3
	c-0.6,0.1-1.1,0.1-1.5,0.2l-0.4-2.2c0.4,0,0.9,0,1.3,0c0.5,0,1.1-0.1,1.7-0.1s1.2-0.1,1.7-0.2s1.1-0.2,1.5-0.3
	c0.3-0.1,0.7-0.2,1-0.3l1.7,1.1c-0.5,0.9-1.1,1.8-1.8,2.7c-0.8,0.9-1.6,1.8-2.4,2.7c0.2-0.1,0.5-0.2,0.7-0.2
	c0.3-0.1,0.5-0.1,0.8-0.1c0.9,0,1.8,0.2,2.6,0.6c0.7,0.4,1.3,0.9,1.7,1.6c0.4,0.7,0.6,1.5,0.6,2.4c0,0.9-0.2,1.8-0.7,2.6
	c-0.5,0.8-1.2,1.4-2,1.8C79.6,35.8,78.6,36.1,77.5,36z M77.3,33.9c0-0.4-0.2-0.8-0.4-1.2c-0.2-0.3-0.6-0.4-0.9-0.4
	c-0.2,0-0.4,0-0.5,0.2c-0.1,0.1-0.2,0.3-0.2,0.5c0,0.3,0.2,0.5,0.4,0.7c0.4,0.2,0.9,0.3,1.4,0.3c0,0,0.1,0,0.1,0L77.3,33.9z
	 M94.1,31.9c0-0.4-0.1-0.9-0.1-1.5c0-0.6-0.1-1.3-0.1-2.1c0-0.7-0.1-1.5-0.1-2.2c0-0.7-0.1-1.3-0.1-1.9c0-0.6,0-0.9,0-1.2v-2.9h2.7
	V23c0,0.2,0,0.6,0,1.2s0,1.2-0.1,1.9c0,0.7-0.1,1.4-0.1,2.2c0,0.7-0.1,1.4-0.1,2.1c0,0.6-0.1,1.2-0.1,1.5H94.1z M95.1,36.6
	c-0.4,0-0.8-0.2-1.1-0.5c-0.3-0.3-0.5-0.7-0.5-1.1c0-0.4,0.2-0.8,0.5-1.1c0.3-0.3,0.7-0.5,1.1-0.5c0.4,0,0.8,0.2,1.1,0.5
	c0.3,0.3,0.5,0.7,0.5,1.1c0,0.4-0.2,0.8-0.5,1.1C95.9,36.4,95.5,36.6,95.1,36.6z"/>
</svg>
