<?xml version="1.0" encoding="utf-8"?>
<!-- Generator: Adobe Illustrator 26.3.1, SVG Export Plug-In . SVG Version: 6.00 Build 0)  -->
<svg version="1.1" id="レイヤー_1" xmlns="http://www.w3.org/2000/svg" xmlns:xlink="http://www.w3.org/1999/xlink" x="0px"
	 y="0px" viewBox="0 0 130 70" style="enable-background:new 0 0 130 70;" xml:space="preserve">
<style type="text/css">
	.st0{fill-rule:evenodd;clip-rule:evenodd;fill:#FFFFFF;}
</style>
<path id="パス_8672" class="st0" d="M33.1,69.9c5.7-4.7,8.4-14.1-5-14.3C8.7,55.2-0.7,43.4,0,25.5C0.8,7.1,17,2.6,35.2,1.4
	c21.5-1.3,40-2.7,64.7,0.6c16.1,2.1,28.9,8.2,29.9,21.2c1.9,24.3-13.3,30-31.1,32.2c-10.4,1.3-24.5,2.3-44.6,1.9
	C48.7,57.3,46.2,68.2,33.1,69.9"/>
<path id="パス_8678" d="M26.2,36.3c-0.3-0.2-0.7-0.4-1.1-0.5c-0.4-0.2-0.8-0.3-1.2-0.4c0.4-0.6,0.7-1.2,1-1.8
	c0.4-0.7,0.7-1.5,1.1-2.4c0.4-0.9,0.7-1.8,1-2.8c0.3-1,0.6-1.9,0.9-2.9c-0.7,0.1-1.4,0.1-2,0.1c-0.6,0-1.2,0-1.6,0l-0.2-2.3
	c0.7,0.1,1.3,0.1,2,0.1c0.8,0,1.6-0.1,2.5-0.1c0.2-0.7,0.3-1.3,0.4-1.8c0.1-0.5,0.1-1,0.2-1.5l2.4,0.3c-0.1,0.4-0.1,0.8-0.2,1.2
	c-0.1,0.4-0.2,0.9-0.3,1.5c0.5-0.1,1-0.2,1.5-0.3c0.4-0.1,0.8-0.2,1.2-0.3l0.3,2.1c-0.4,0.1-0.9,0.3-1.5,0.4c-0.6,0.1-1.3,0.2-2,0.4
	c-0.3,1-0.6,2-0.9,3.1c-0.3,1.1-0.7,2.1-1.1,3.1c-0.4,1-0.7,1.9-1.1,2.8S26.5,35.7,26.2,36.3z M39.1,35.5c-1.3,0.2-2.6,0.3-3.9,0.2
	c-1.1-0.1-2.1-0.3-3.2-0.7c-0.8-0.3-1.5-0.8-2-1.4l1.2-1.7c0.5,0.5,1.2,0.9,1.9,1.1c0.9,0.3,1.9,0.5,2.8,0.5c1.2,0,2.4-0.1,3.5-0.3
	c-0.1,0.4-0.2,0.8-0.3,1.2C39.1,34.7,39.1,35.1,39.1,35.5L39.1,35.5z M38.5,28.8c-0.5-0.2-1-0.3-1.4-0.4c-0.5-0.1-1.1-0.2-1.7-0.3
	S34.2,28,33.6,28c-0.6,0-1.1,0-1.6,0l0.3-2.2c0.5,0,1.1,0,1.6,0c0.6,0,1.3,0.1,1.9,0.1c0.7,0.1,1.3,0.1,1.9,0.2
	c0.6,0.1,1.1,0.2,1.5,0.3L38.5,28.8z M57.2,33.1c-0.4-0.2-0.9-0.5-1.5-0.9c-0.6-0.4-1.2-0.8-1.9-1.3c-0.7-0.5-1.3-0.9-2-1.4
	c-0.7-0.5-1.3-1-1.8-1.4c-0.6-0.5-1-0.9-1.4-1.2c-0.1-0.1-0.3-0.2-0.4-0.3c-0.2,0-0.3,0.1-0.4,0.2c-0.4,0.4-0.8,0.8-1.4,1.2
	s-1.1,0.8-1.6,1.3c-0.6,0.4-1.1,0.8-1.6,1.2l-1.8-2c0.4-0.2,0.8-0.4,1.4-0.7c0.5-0.3,1.1-0.7,1.7-1.1c0.6-0.4,1.1-0.8,1.6-1.2
	c0.4-0.3,0.8-0.7,1.2-1.1c0.2-0.3,0.5-0.4,0.9-0.5c0.4,0.1,0.7,0.2,0.9,0.5c0.3,0.2,0.7,0.6,1.3,1s1.2,0.9,2,1.4
	c0.7,0.5,1.5,1,2.3,1.5s1.5,1,2.2,1.4c0.6,0.4,1.2,0.7,1.9,1c-0.2,0.2-0.4,0.4-0.6,0.6c-0.2,0.3-0.4,0.6-0.6,0.8
	C57.4,32.6,57.3,32.8,57.2,33.1L57.2,33.1z M54.2,25.6c-0.3-0.4-0.7-0.8-1.1-1.2c-0.4-0.4-0.7-0.7-1.2-1l1-0.9
	c0.3,0.2,0.5,0.4,0.7,0.6c0.3,0.3,0.6,0.5,0.9,0.8c0.2,0.2,0.5,0.5,0.7,0.7L54.2,25.6z M55.8,24c-0.3-0.4-0.7-0.8-1.1-1.2
	c-0.4-0.4-0.8-0.7-1.2-1l1-0.9c0.3,0.2,0.5,0.4,0.7,0.6c0.3,0.3,0.6,0.5,0.9,0.8c0.2,0.2,0.5,0.5,0.7,0.7L55.8,24z M63.5,36.5V31
	c-0.5,0.5-0.9,1-1.3,1.5c-0.4,0.5-0.7,0.8-0.9,1.1l-1.7-1.4c0.5-0.4,1.1-1,1.8-1.7c0.7-0.7,1.4-1.4,2.1-2.1v-2.6
	c-0.6,0.1-1.1,0.2-1.6,0.4c-0.5,0.1-1,0.2-1.3,0.3l-0.5-2.1c0.4,0,0.9-0.1,1.5-0.2c0.6-0.1,1.3-0.2,1.9-0.3V20h2.1v3.2l0,0l1.2,0.9
	l-1.1,2.1c0.6-0.5,1.2-1,1.8-1.5c0.5-0.4,1.1-0.8,1.7-1.1c0.5-0.2,1-0.4,1.5-0.4c0.7-0.1,1.4,0.2,1.9,0.8c0.4,0.8,0.6,1.7,0.4,2.6
	c0,0.2,0,0.5-0.1,0.9s-0.1,0.8-0.1,1.3c0,0.5-0.1,1-0.1,1.5c0,0.5-0.1,0.9-0.1,1.3c0,0.4-0.1,0.7-0.1,0.8c-0.1,0.5,0.2,0.8,0.7,0.8
	c0.5,0,1-0.2,1.4-0.6c0.5-0.4,0.8-0.9,1.1-1.4c0.1,0.2,0.2,0.4,0.3,0.7c0.1,0.3,0.3,0.5,0.5,0.7c0.1,0.2,0.3,0.4,0.4,0.5
	c-0.3,0.5-0.7,0.9-1.1,1.2c-0.4,0.3-0.9,0.6-1.4,0.8c-0.5,0.2-1,0.3-1.5,0.3c-2,0-3-1-2.8-3.1c0-0.2,0.1-0.5,0.1-0.9
	c0-0.4,0.1-0.9,0.1-1.4c0-0.5,0.1-1,0.1-1.5c0.1-0.5,0.1-1,0.1-1.4s0.1-0.7,0.1-0.9c0-0.3,0-0.6-0.1-0.9c-0.1-0.2-0.4-0.3-0.6-0.3
	c-0.4,0.1-0.8,0.2-1.1,0.5c-0.5,0.4-1.1,0.8-1.5,1.2c-0.6,0.5-1.2,1.1-1.8,1.7v7.7H63.5z M86.6,36c-1.2,0.1-2.4-0.2-3.4-0.9
	c-0.7-0.5-1.1-1.3-1.1-2.1c0-0.5,0.1-1,0.4-1.4c0.3-0.4,0.6-0.7,1-0.9c0.4-0.2,0.9-0.3,1.4-0.3c0.8,0,1.7,0.3,2.3,0.9
	c0.6,0.6,1,1.3,1.1,2.2c0.5-0.2,0.9-0.6,1.2-1c0.3-0.5,0.5-1,0.4-1.6c0-0.5-0.1-1-0.4-1.4c-0.3-0.4-0.6-0.8-1.1-1
	c-0.5-0.3-1-0.4-1.6-0.4c-0.7,0-1.5,0.1-2.2,0.3c-0.6,0.2-1.2,0.5-1.7,1c-0.2,0.2-0.5,0.5-0.9,0.8c-0.4,0.3-0.7,0.6-1.1,0.9
	l-1.6-1.7c0.6-0.4,1.2-0.8,1.8-1.3c0.6-0.5,1.3-1.1,2-1.7s1.3-1.3,1.9-1.9c0.6-0.6,1.1-1.3,1.6-2c-0.5,0.1-1.1,0.2-1.8,0.4
	s-1.3,0.2-1.8,0.3c-0.6,0.1-1.1,0.1-1.5,0.2l-0.4-2.2c0.4,0,0.9,0,1.3,0c0.5,0,1.1-0.1,1.7-0.1c0.6-0.1,1.2-0.1,1.7-0.2
	c0.6-0.1,1.1-0.2,1.5-0.3c0.3-0.1,0.7-0.2,1-0.3l1.7,1.1c-0.5,0.9-1.1,1.8-1.8,2.7c-0.8,0.9-1.6,1.8-2.4,2.7
	c0.2-0.1,0.5-0.2,0.7-0.2c0.3-0.1,0.5-0.1,0.8-0.1c0.9,0,1.8,0.2,2.6,0.6c0.7,0.4,1.3,0.9,1.7,1.6c0.4,0.7,0.6,1.5,0.6,2.4
	c0,0.9-0.2,1.8-0.7,2.6c-0.5,0.8-1.2,1.4-2,1.8C88.7,35.8,87.6,36.1,86.6,36z M86.3,33.9c0-0.4-0.2-0.8-0.4-1.2
	c-0.2-0.3-0.6-0.4-0.9-0.4c-0.2,0-0.4,0-0.5,0.2c-0.1,0.1-0.2,0.3-0.2,0.5c0,0.3,0.2,0.5,0.4,0.7c0.4,0.2,0.9,0.3,1.4,0.3
	c0,0,0.1,0,0.1,0L86.3,33.9z M103.2,31.9c0-0.4-0.1-0.9-0.1-1.5c0-0.6-0.1-1.3-0.1-2.1c0-0.7-0.1-1.5-0.1-2.2c0-0.7-0.1-1.3-0.1-1.9
	c0-0.6,0-0.9,0-1.2v-2.9h2.7V23c0,0.2,0,0.6,0,1.2c0,0.6,0,1.2-0.1,1.9c0,0.7-0.1,1.4-0.1,2.2c0,0.7-0.1,1.4-0.1,2.1
	c0,0.6-0.1,1.2-0.1,1.5L103.2,31.9z M104.1,36.6c-0.4,0-0.8-0.2-1.1-0.5c-0.3-0.3-0.5-0.7-0.5-1.1c0-0.4,0.2-0.8,0.5-1.1
	c0.3-0.3,0.7-0.5,1.1-0.5c0.4,0,0.8,0.2,1.1,0.5c0.3,0.3,0.5,0.7,0.5,1.1c0,0.4-0.2,0.8-0.5,1.1C104.9,36.4,104.5,36.6,104.1,36.6z"
	/>
</svg>
