<svg xmlns="http://www.w3.org/2000/svg" viewBox="0 0 130 70"><path d="M33.11,70c5.7351-4.6807,8.4231-14.1484-4.968-14.3719C8.6917,55.3024-.6734,43.5079.0376,25.5175.7646,7.15,16.9627,2.5577,35.2309,1.4434c21.5491-1.3148,40.01-2.6966,64.7.5872,16.1161,2.1434,28.8571,8.2481,29.9,21.2943,1.9471,24.3166-13.253,30.0225-31.1192,32.3022-10.383,1.3248-24.5211,2.3108-44.5842,1.911-5.4771-.1092-7.9091,10.8085-21.02,12.4609" fill="#fff" fill-rule="evenodd"/><g style="isolation:isolate"><g style="isolation:isolate"><path d="M25.08,36.07a17.5405,17.5405,0,0,1-.209-1.91q-.0762-1.169-.1045-2.6035-.0286-1.4327-.01-2.9629t.0952-2.9941q.0755-1.4619.1993-2.6973a20.1944,20.1944,0,0,1,.2944-2.0527l2.166.5137A10.7145,10.7145,0,0,0,27.16,23.15q-.1421,1.1192-.2182,2.498-.0762,1.377-.0952,2.84-.0191,1.4648.0288,2.84.0468,1.38.1518,2.5176a15.7876,15.7876,0,0,0,.2564,1.8437Zm7.0488-.2285a3.7274,3.7274,0,0,1-2.375-.875,2.4819,2.4819,0,0,1-.874-1.9746,2.314,2.314,0,0,1,.4751-1.34,3.1293,3.1293,0,0,1,1.292-.9883,4.9139,4.9139,0,0,1,1.9951-.371,10.969,10.969,0,0,1,1.14.0566q-.019-.8349-.0566-1.8984t-.0762-2.3184c-.7856.0508-1.5454.0781-2.28.0859q-1.1015.0088-1.8808-.0293l-.1519-2.3183a12.6191,12.6191,0,0,0,1.8526.123q1.1491.0117,2.4223-.0469c-.0127-.5058-.0224-1.0234-.0283-1.5488s-.01-1.0605-.01-1.6054h2.2232q-.0191.7236-.0283,1.4824c-.0069.5078-.01,1.02-.01,1.539.76-.0625,1.45-.1367,2.0713-.2187a8.63,8.63,0,0,0,1.4058-.2754v2.2793a14.0281,14.0281,0,0,1-1.4439.209c-.6079.0644-1.2671.1269-1.9761.1914q.0381,1.3857.0948,2.65.057,1.2627.0952,2.2129a11.695,11.695,0,0,1,2.0517.9687,21.05,21.05,0,0,1,1.9385,1.3106,3.4385,3.4385,0,0,0-.4849.5234,7.6651,7.6651,0,0,0-.5034.7227,6.1032,6.1032,0,0,0-.3418.6171,12.48,12.48,0,0,0-2.622-1.8632,2.6185,2.6185,0,0,1-1.15,2.1386A4.7776,4.7776,0,0,1,32.1292,35.8415ZM32.3,33.904a1.8375,1.8375,0,0,0,1.1685-.3145,1.384,1.384,0,0,0,.39-1.1308v-.1328a7.6754,7.6754,0,0,0-1.3491-.1895,2.1271,2.1271,0,0,0-1.13.2285.7776.7776,0,0,0-.4468.6445.6985.6985,0,0,0,.3614.6465A1.8265,1.8265,0,0,0,32.3,33.904Z"/><path d="M48.3553,33.58a2.9,2.9,0,0,1-1.7862.4277,2.1414,2.1414,0,0,1-1.4819-1.0742,12.4434,12.4434,0,0,1-1.083-2.1465,20.78,20.78,0,0,1-.8457-2.6211,23.8385,23.8385,0,0,1-.5322-2.7754,18.0411,18.0411,0,0,1-.1612-2.6016l2.3179.0176A12.4245,12.4245,0,0,0,44.84,24.84a19.7251,19.7251,0,0,0,.3609,2.2246,17.4366,17.4366,0,0,0,.5888,2.08,8.63,8.63,0,0,0,.7413,1.6055.9656.9656,0,0,0,.5791.5215.9071.9071,0,0,0,.6748-.16,5.8392,5.8392,0,0,0,.96-.8359,8.8046,8.8046,0,0,0,.8447-1.0274,3.2657,3.2657,0,0,0,.3135.6465c.1455.24.3047.4746.4756.7031a5.1494,5.1494,0,0,0,.4649.5508,9.0981,9.0981,0,0,1-1.168,1.4063A6.4863,6.4863,0,0,1,48.3553,33.58Zm7.1816-3.5528A12.7822,12.7822,0,0,0,54.948,28.66q-.3984-.8174-.9121-1.7011c-.3418-.59-.6836-1.1328-1.0263-1.6348a7.5039,7.5039,0,0,0-.9493-1.168l1.8233-1.1582a10.7478,10.7478,0,0,1,1.0547,1.2735q.58.7968,1.1406,1.6992t.9971,1.748a9.9262,9.9262,0,0,1,.6269,1.4356,6.2582,6.2582,0,0,0-1.1875.3594A5.1673,5.1673,0,0,0,55.5369,30.027Z"/><path d="M63.5359,36.5251V31.111q-.703.7793-1.292,1.4727-.5887.6914-.9316,1.1289L59.64,32.2692q.7985-.6649,1.7959-1.6816t2.1-2.1192V25.8669q-.8364.19-1.6435.3593c-.5391.1153-.9727.2032-1.3018.2676l-.456-2.1094q.5508-.0379,1.5107-.1894t1.8906-.3438V20.1091h2.128v3.1738l.0381-.02,1.1591.8554-1.1025,2.1465q.8935-.8173,1.7676-1.4824a10.767,10.767,0,0,1,1.6718-1.0645,3.3117,3.3117,0,0,1,1.4629-.3984,2.19,2.19,0,0,1,1.8994.8086,3.8831,3.8831,0,0,1,.4375,2.5918q-.0189.3046-.0859.9023c-.0439.4-.0889.8457-.1328,1.34s-.0889.9863-.1328,1.4726q-.0674.7325-.1231,1.3106c-.038.3867-.0644.67-.0761.8457q-.0953.8173.6836.8183a2.1822,2.1822,0,0,0,1.4443-.57,5.3441,5.3441,0,0,0,1.14-1.3867,4.51,4.51,0,0,0,.3135.6543,7.2151,7.2151,0,0,0,.4756.7422,4.6861,4.6861,0,0,0,.4463.541,4.85,4.85,0,0,1-1.1025,1.2344,5.3962,5.3962,0,0,1-1.4151.8262,4,4,0,0,1-1.4726.2949q-3.0586,0-2.793-3.0781c.0254-.2012.0566-.51.0947-.9219.0381-.41.0791-.8672.124-1.3672s.0918-1,.1426-1.5q.0747-.753.1328-1.35c.0381-.3985.0635-.6875.0762-.8653a1.7567,1.7567,0,0,0-.1143-.9121.622.622,0,0,0-.5888-.2656,2.18,2.18,0,0,0-1.0645.4649,14.8749,14.8749,0,0,0-1.539,1.2363q-.8541.7675-1.7666,1.6816v7.6563Z"/><path d="M86.5643,36.1071a5.3581,5.3581,0,0,1-3.3623-.8652,2.6158,2.6158,0,0,1-1.0831-2.1172,2.3565,2.3565,0,0,1,.3985-1.3867,2.6785,2.6785,0,0,1,1.0449-.8848,3.137,3.137,0,0,1,1.3877-.3125,3.0562,3.0562,0,0,1,2.27.873A4.1027,4.1027,0,0,1,88.3318,33.58a2.75,2.75,0,0,0,1.1494-.9883,2.8,2.8,0,0,0,.4463-1.5957,2.6963,2.6963,0,0,0-.38-1.4239,2.7271,2.7271,0,0,0-1.0733-.998,3.3476,3.3476,0,0,0-1.6055-.3711,7.2019,7.2019,0,0,0-2.2138.3047,4.8,4.8,0,0,0-1.7.9687q-.3427.3048-.9024.7793t-1.0547.8555l-1.5585-1.6719a15.7207,15.7207,0,0,0,1.8242-1.2558q.97-.7588,1.957-1.6895t1.8809-1.93a24.6434,24.6434,0,0,0,1.5966-1.9668q-.8173.19-1.7773.3614c-.64.1152-1.2539.209-1.8428.2851s-1.0859.127-1.4912.1524l-.418-2.166a9.8421,9.8421,0,0,0,1.2823-.01q.7691-.047,1.6621-.1328t1.7392-.2188q.8453-.1319,1.52-.2754a4.9131,4.9131,0,0,0,.998-.2949l1.71,1.1406a15.3791,15.3791,0,0,1-1.7764,2.67,34.8153,34.8153,0,0,1-2.4228,2.6875,3.2935,3.2935,0,0,1,.7216-.2364,3.7434,3.7434,0,0,1,.7793-.0859,5.5837,5.5837,0,0,1,2.6026.57,4.2386,4.2386,0,0,1,1.72,1.5859,4.4633,4.4633,0,0,1,.6172,2.3653,4.8334,4.8334,0,0,1-.7119,2.584,5.0971,5.0971,0,0,1-2.0049,1.8437A6.4169,6.4169,0,0,1,86.5643,36.1071Zm-.2471-2.09a2.2884,2.2884,0,0,0-.4463-1.1582,1.1206,1.1206,0,0,0-.9209-.4375.8491.8491,0,0,0-.5137.1523.5246.5246,0,0,0-.209.4551.7768.7768,0,0,0,.4278.666,3.1019,3.1019,0,0,0,1.4345.3027.3345.3345,0,0,0,.1143.02Z"/><path d="M104.1014,36.6579a1.6221,1.6221,0,1,1,1.14-.4746A1.5542,1.5542,0,0,1,104.1014,36.6579Zm-.9307-4.6934q-.0381-.5889-.0957-1.5468c-.0381-.6407-.0791-1.33-.123-2.0723q-.0675-1.11-.1143-2.1856-.0469-1.0722-.0762-1.8984t-.0283-1.1875V20.1286H105.47v2.9453q0,.36-.0283,1.1875T105.365,26.16q-.0483,1.0752-.1142,2.1856c-.0449.7422-.085,1.4316-.1231,2.0723q-.0572.9579-.0957,1.5468Z"/></g></g></svg>